<svg width="120" height="22" viewBox="0 0 120 22" fill="none" xmlns="http://www.w3.org/2000/svg">
<path d="M49.7021 11.6846C49.6247 12.7555 49.2282 13.5986 48.5127 14.2139C47.8018 14.8291 46.863 15.1367 45.6963 15.1367C44.4202 15.1367 43.4154 14.7083 42.6816 13.8516C41.9525 12.9902 41.5879 11.8099 41.5879 10.3105V9.70215C41.5879 8.74512 41.7565 7.90202 42.0938 7.17285C42.431 6.44368 42.9118 5.88542 43.5361 5.49805C44.165 5.10612 44.8942 4.91016 45.7236 4.91016C46.8721 4.91016 47.7972 5.21777 48.499 5.83301C49.2008 6.44824 49.6064 7.31185 49.7158 8.42383H47.665C47.6149 7.78125 47.4349 7.31641 47.125 7.0293C46.8197 6.73763 46.3525 6.5918 45.7236 6.5918C45.04 6.5918 44.5273 6.83789 44.1855 7.33008C43.8483 7.81771 43.6751 8.5765 43.666 9.60645V10.3584C43.666 11.4339 43.8278 12.2201 44.1514 12.7168C44.4795 13.2135 44.9945 13.4619 45.6963 13.4619C46.3298 13.4619 46.8014 13.3184 47.1113 13.0312C47.4258 12.7396 47.6058 12.2907 47.6514 11.6846H49.7021ZM59.2246 10.249C59.2246 11.2288 59.0514 12.0879 58.7051 12.8262C58.3587 13.5645 57.862 14.1341 57.2148 14.5352C56.5723 14.9362 55.834 15.1367 55 15.1367C54.1751 15.1367 53.4391 14.9385 52.792 14.542C52.1449 14.1455 51.6436 13.5804 51.2881 12.8467C50.9326 12.1084 50.7526 11.2607 50.748 10.3037V9.81152C50.748 8.83171 50.9235 7.97038 51.2744 7.22754C51.6299 6.48014 52.1289 5.9082 52.7715 5.51172C53.4186 5.11068 54.1569 4.91016 54.9863 4.91016C55.8158 4.91016 56.5518 5.11068 57.1943 5.51172C57.8415 5.9082 58.3405 6.48014 58.6914 7.22754C59.0469 7.97038 59.2246 8.82943 59.2246 9.80469V10.249ZM57.1465 9.79785C57.1465 8.75423 56.9596 7.96126 56.5859 7.41895C56.2122 6.87663 55.679 6.60547 54.9863 6.60547C54.2982 6.60547 53.7673 6.87435 53.3936 7.41211C53.0199 7.94531 52.8307 8.72917 52.8262 9.76367V10.249C52.8262 11.2653 53.013 12.0537 53.3867 12.6143C53.7604 13.1748 54.2982 13.4551 55 13.4551C55.6882 13.4551 56.2168 13.1862 56.5859 12.6484C56.9551 12.1061 57.1419 11.3177 57.1465 10.2832V9.79785ZM63.3945 5.04688L65.9512 12.2656L68.4941 5.04688H71.1875V15H69.1299V12.2793L69.335 7.58301L66.6484 15H65.2402L62.5605 7.58984L62.7656 12.2793V15H60.7148V5.04688H63.3945ZM75.0293 11.4932V15H72.9785V5.04688H76.8613C77.6087 5.04688 78.265 5.18359 78.8301 5.45703C79.3997 5.73047 79.8372 6.12012 80.1426 6.62598C80.4479 7.12728 80.6006 7.69922 80.6006 8.3418C80.6006 9.31706 80.2656 10.0872 79.5957 10.6523C78.9303 11.2129 78.0075 11.4932 76.8271 11.4932H75.0293ZM75.0293 9.83203H76.8613C77.4036 9.83203 77.8161 9.70443 78.0986 9.44922C78.3857 9.19401 78.5293 8.82943 78.5293 8.35547C78.5293 7.86784 78.3857 7.47363 78.0986 7.17285C77.8115 6.87207 77.415 6.71712 76.9092 6.70801H75.0293V9.83203ZM86.418 12.9492H82.8223L82.1387 15H79.958L83.6631 5.04688H85.5635L89.2891 15H87.1084L86.418 12.9492ZM83.376 11.2881H85.8643L84.6133 7.5625L83.376 11.2881ZM98.3125 15H96.2617L92.2695 8.45117V15H90.2188V5.04688H92.2695L96.2686 11.6094V5.04688H98.3125V15ZM103.344 9.53125L105.415 5.04688H107.657L104.39 11.3906V15H102.305V11.3906L99.0371 5.04688H101.286L103.344 9.53125Z" fill="white"/>
<g clip-path="url(#clip0)">
<path d="M11.2262 8.99198H6.81524C5.41835 8.99198 4.28643 7.87835 4.28643 6.50401C4.28643 5.12967 5.41835 4.01604 6.81524 4.01604H13.2049L17.2869 0H6.81452C3.16388 0 0.203773 2.91232 0.203773 6.50401C0.203773 10.0957 3.16388 13.008 6.81452 13.008H11.2255C12.6224 13.008 13.7543 14.1217 13.7543 15.496C13.7543 16.8703 12.6224 17.984 11.2255 17.984H4.08194L0 22H11.2262C14.8776 22 17.837 19.0877 17.837 15.496C17.837 11.9043 14.8769 8.99198 11.2262 8.99198Z" fill="#9D9D9C"/>
<path d="M26.8453 12.9939C29.7824 12.3272 32.0239 9.95118 32.0239 6.50401C32.0239 2.91232 29.0645 0 25.4132 0H21.1728L17.0052 4.01604H25.4132C26.8101 4.01604 27.942 5.12967 27.942 6.50401C27.942 7.87835 26.8101 8.99198 25.4132 8.99198H20.0935H17.0052L30.2267 22H36L26.8453 12.9939Z" fill="#D9A22D"/>
</g>
<defs>
<clipPath id="clip0">
<rect width="35" height="22" fill="white"/>
</clipPath>
</defs>
</svg>
