<svg width="16" height="16" viewBox="0 0 16 16" fill="none" xmlns="http://www.w3.org/2000/svg">
<path d="M8 16C12.4113 16 16 12.4113 16 8C16 3.58867 12.4113 0 8 0C3.58867 0 0 3.58867 0 8C0 12.4113 3.58867 16 8 16ZM8 1C11.86 1 15 4.14 15 8C15 11.86 11.86 15 8 15C4.14 15 1 11.86 1 8C1 4.14 4.14 1 8 1Z" fill="white"/>
<path d="M5.26401 9.43671L6.30934 8.98271L6.01601 9.27671C5.92201 9.37071 5.86934 9.49804 5.86934 9.63004V11.5867C5.86934 12.0347 6.41067 12.252 6.72267 11.94L7.77201 10.8907L10.0587 12.034C10.3547 12.182 10.7127 12.0067 10.774 11.676L12.0787 4.50204C12.1473 4.11604 11.7673 3.80404 11.404 3.94671L2.92667 7.26471C2.54667 7.41271 2.49601 7.93271 2.84001 8.15204L4.79601 9.40005C4.93601 9.48938 5.11267 9.50338 5.26401 9.43671V9.43671ZM10.9347 5.20538L9.91001 10.842L7.89667 9.83605C7.70201 9.73871 7.47001 9.77938 7.32001 9.93005L6.86934 10.3807V9.83871L8.87401 7.83405C9.26267 7.44538 8.82534 6.80404 8.32134 7.02204L5.11001 8.41538L4.20734 7.83938L10.9347 5.20538Z" fill="white"/>
</svg>
