<?xml version="1.0" encoding="utf-8"?>
<!-- Generator: Adobe Illustrator 23.0.1, SVG Export Plug-In . SVG Version: 6.00 Build 0)  -->
<svg version="1.1" id="Слой_4" xmlns="http://www.w3.org/2000/svg" xmlns:xlink="http://www.w3.org/1999/xlink" x="0px" y="0px"
	 viewBox="0 0 486.08 310.55" style="enable-background:new 0 0 486.08 310.55;" xml:space="preserve">
<style type="text/css">
	.st0{fill:#9D9D9C;}
	.st1{fill:#D9A22D;}
</style>
<path class="st0" d="M155.91,126.93L155.91,126.93l-61.26,0c-19.4,0-35.12-15.72-35.12-35.12c0-19.4,15.72-35.12,35.12-35.12h88.74
	L240.08,0H94.64C43.94,0,2.83,41.11,2.83,91.81s41.11,91.81,91.81,91.81h61.26v0c19.4,0,35.12,15.72,35.12,35.12
	c0,19.4-15.72,35.12-35.12,35.12v0H56.69L0,310.55h155.91c50.71,0,91.81-41.11,91.81-91.81S206.61,126.93,155.91,126.93z"/>
<path class="st1" d="M358.94,183.42c40.79-9.41,71.92-42.95,71.92-91.61C430.86,41.11,389.76,0,339.05,0h-58.89l-57.88,56.69h116.77
	c19.4,0,35.12,15.72,35.12,35.12c0,19.4-15.72,35.12-35.12,35.12h-73.88h-42.89L405.9,310.55h80.18L358.94,183.42z"/>
</svg>
